<svg width="40" height="40" viewBox="0 0 40 40" fill="none" xmlns="http://www.w3.org/2000/svg">
<g filter="url(#filter0_dd_149_284)">
<path d="M1.75619 11.9494C3.04529 5.70788 7.01176 2.23155 13.1987 1.18138C17.7724 0.405229 22.3477 0.3954 26.9136 1.20318C33.284 2.3301 37.1136 6.00916 38.3336 12.3451C39.2762 17.2416 39.291 22.1904 38.3188 27.0824C37.0147 33.2807 32.9459 37.1068 26.7817 38.1531C22.2081 38.9292 17.6328 38.939 13.0668 38.1313C6.69644 37.0043 2.8498 33.1416 1.62989 26.8057C0.639251 21.8769 0.73457 16.8968 1.75619 11.9493V11.9494Z" fill="black"/>
</g>
<path d="M1.75619 11.9494C3.04529 5.70788 7.01176 2.23155 13.1987 1.18138C17.7724 0.405229 22.3477 0.3954 26.9136 1.20318C33.284 2.3301 37.1136 6.00916 38.3336 12.3451C39.2762 17.2416 39.291 22.1904 38.3188 27.0824C37.0147 33.2807 32.9459 37.1068 26.7817 38.1531C22.2081 38.9292 17.6328 38.939 13.0668 38.1313C6.69644 37.0043 2.8498 33.1416 1.62989 26.8057C0.639251 21.8769 0.73457 16.8968 1.75619 11.9493V11.9494Z" fill="#457B9D"/>
<path fill-rule="evenodd" clip-rule="evenodd" d="M22.8936 19.6287C22.8936 21.2494 21.5855 22.5633 19.9717 22.5633C18.3579 22.5633 17.0496 21.2494 17.0496 19.6287C17.0496 18.0081 18.3579 16.6943 19.9717 16.6943C21.5855 16.6943 22.8936 18.0081 22.8936 19.6287ZM15.5461 19.6287C15.5461 17.174 17.5275 15.1843 19.9717 15.1843C22.4158 15.1843 24.3972 17.174 24.3972 19.6287C24.3972 22.0834 22.4158 24.0732 19.9717 24.0732C17.5275 24.0732 15.5461 22.0834 15.5461 19.6287ZM29.1915 16.6807H30.6667V24.5079C30.6667 26.3448 29.1839 27.8339 27.3548 27.8339H13.247V26.3524H27.0901C28.2507 26.3524 29.1915 25.4075 29.1915 24.2419V16.6807ZM16.2428 13.2375C16.1036 13.3888 15.9348 13.5097 15.7469 13.5925C15.5591 13.6754 15.3562 13.7184 15.1511 13.719L10.7518 13.7313V27.8339H9.27661V13.8768C9.27661 12.9782 10.002 12.2498 10.8968 12.2498H15.1432L16.9975 10.1988C17.103 10.0821 17.2316 9.98893 17.3752 9.92525C17.5188 9.86158 17.674 9.82885 17.831 9.82916L22.351 9.83754C22.5055 9.83784 22.6584 9.87017 22.7999 9.93249C22.9414 9.99482 23.0686 10.0858 23.1735 10.1998L25.0606 12.2498H30.6667V13.7313L25.0472 13.7138C24.8421 13.7131 24.6394 13.67 24.4517 13.5872C24.264 13.5043 24.0953 13.3835 23.9561 13.2323L22.1865 11.3097H18.0173L16.2429 13.2375H16.2428Z" fill="white"/>
<defs>
<filter id="filter0_dd_149_284" x="-10.0638" y="-6.4017" width="60.108" height="60.1378" filterUnits="userSpaceOnUse" color-interpolation-filters="sRGB">
<feFlood flood-opacity="0" result="BackgroundImageFix"/>
<feColorMatrix in="SourceAlpha" type="matrix" values="0 0 0 0 0 0 0 0 0 0 0 0 0 0 0 0 0 0 127 0" result="hardAlpha"/>
<feOffset dy="5"/>
<feGaussianBlur stdDeviation="4"/>
<feColorMatrix type="matrix" values="0 0 0 0 0 0 0 0 0 0 0 0 0 0 0 0 0 0 0.078125 0"/>
<feBlend mode="normal" in2="BackgroundImageFix" result="effect1_dropShadow_149_284"/>
<feColorMatrix in="SourceAlpha" type="matrix" values="0 0 0 0 0 0 0 0 0 0 0 0 0 0 0 0 0 0 127 0" result="hardAlpha"/>
<feOffset dy="4"/>
<feGaussianBlur stdDeviation="5.5"/>
<feColorMatrix type="matrix" values="0 0 0 0 0 0 0 0 0 0 0 0 0 0 0 0 0 0 0.210824 0"/>
<feBlend mode="normal" in2="effect1_dropShadow_149_284" result="effect2_dropShadow_149_284"/>
<feBlend mode="normal" in="SourceGraphic" in2="effect2_dropShadow_149_284" result="shape"/>
</filter>
</defs>
</svg>
