<svg width="49" height="42" viewBox="0 0 49 42" fill="none" xmlns="http://www.w3.org/2000/svg">
<g clip-path="url(#clip0_149_319)">
<path d="M25 34.88C23.5965 34.8597 22.2433 34.3545 21.17 33.45L14.1 27.22C13.5615 26.7241 12.8657 26.4333 12.1345 26.3986C11.4033 26.3639 10.6831 26.5874 10.1 27.03L-5.19026e-06 34.42V39.23C-0.0327743 39.8475 0.180235 40.4529 0.592472 40.9139C1.00471 41.3748 1.58265 41.6539 2.19999 41.69H38.05C38.7516 41.724 39.4393 41.4863 39.9701 41.0262C40.5009 40.5662 40.8339 39.9193 40.9 39.22V26.63L28.12 34C27.1823 34.5784 26.1017 34.8832 25 34.88Z" fill="#555555"/>
<path d="M24.48 22.29C26.0595 22.29 27.34 21.0095 27.34 19.43C27.34 17.8505 26.0595 16.57 24.48 16.57C22.9005 16.57 21.62 17.8505 21.62 19.43C21.62 21.0095 22.9005 22.29 24.48 22.29Z" fill="#457B9D"/>
<path d="M47.65 5.09001C47.4502 4.80446 47.1897 4.56669 46.8871 4.39379C46.5845 4.22089 46.2474 4.11714 45.9 4.09001L10.53 7.01286e-06C9.84716 -0.0909485 9.15613 0.0928018 8.60865 0.51091C8.06117 0.929018 7.702 1.5473 7.61 2.23001L7 7.29001H38C39.4242 7.32479 40.7814 7.90203 41.7943 8.9038C42.8072 9.90557 43.3995 11.2563 43.45 12.68V35.59C43.45 35.46 44.04 35.33 44.3 35.07C44.5642 34.8594 44.7771 34.5916 44.9226 34.2867C45.0681 33.9818 45.1424 33.6478 45.14 33.31L48.24 7.00001C48.276 6.65829 48.2422 6.31282 48.1408 5.98452C48.0394 5.65622 47.8724 5.35191 47.65 5.09001Z" fill="#457B9D"/>
<path d="M15.78 25.27L22.92 31.5C23.4439 31.9482 24.0951 32.2211 24.782 32.2803C25.4689 32.3395 26.1571 32.182 26.75 31.83L40.9 23.59V12.68C40.8483 11.9383 40.523 11.2422 39.9872 10.7267C39.4514 10.2112 38.7432 9.913 38 9.89001H2.41C2.06913 9.91154 1.73592 10.0005 1.42971 10.1518C1.1235 10.3031 0.850376 10.5137 0.626187 10.7714C0.401997 11.0291 0.231204 11.3287 0.123712 11.6529C0.0162213 11.9771 -0.0258278 12.3194 4.48572e-06 12.66V31.18L8.58 25C9.62842 24.2108 10.9167 23.8068 12.228 23.856C13.5393 23.9052 14.7936 24.4045 15.78 25.27ZM24.48 14C25.5575 14.006 26.609 14.3311 27.5017 14.9345C28.3944 15.5378 29.0883 16.3922 29.4956 17.3897C29.9029 18.3873 30.0054 19.4832 29.7901 20.5389C29.5748 21.5946 29.0514 22.5629 28.286 23.3213C27.5206 24.0797 26.5476 24.5942 25.4899 24.7998C24.4323 25.0054 23.3374 24.8929 22.3436 24.4764C21.3499 24.06 20.5019 23.3584 19.9067 22.4602C19.3116 21.5619 18.9961 20.5075 19 19.43C19.0026 18.7135 19.1465 18.0045 19.4235 17.3436C19.7004 16.6827 20.1049 16.0829 20.6139 15.5786C21.1229 15.0742 21.7264 14.6752 22.3898 14.4043C23.0532 14.1335 23.7635 13.9961 24.48 14Z" fill="#555555"/>
</g>
<defs>
<clipPath id="clip0_149_319">
<rect width="48.25" height="41.69" fill="white"/>
</clipPath>
</defs>
</svg>
