<svg width="30" height="30" viewBox="0 0 30 30" fill="none" xmlns="http://www.w3.org/2000/svg">
<path d="M15.8837 2.86623L27.1337 14.1162C27.9212 14.9037 27.3637 16.25 26.25 16.25H25V23.75C25 24.7445 24.6049 25.6984 23.9016 26.4016C23.1984 27.1049 22.2445 27.5 21.25 27.5H20V18.75C20 17.7935 19.6346 16.8731 18.9784 16.1772C18.3222 15.4812 17.4249 15.0623 16.47 15.0062L16.25 15H13.75C12.7554 15 11.8016 15.3951 11.0983 16.0983C10.3951 16.8016 9.99999 17.7554 9.99999 18.75V27.5H8.74999C7.75543 27.5 6.8016 27.1049 6.09834 26.4016C5.39508 25.6984 4.99999 24.7445 4.99999 23.75V16.25H3.74999C2.63749 16.25 2.07874 14.9037 2.86624 14.1162L14.1162 2.86623C14.3506 2.63189 14.6685 2.50024 15 2.50024C15.3314 2.50024 15.6493 2.63189 15.8837 2.86623ZM16.25 17.5C16.5815 17.5 16.8995 17.6317 17.1339 17.8661C17.3683 18.1005 17.5 18.4185 17.5 18.75V27.5H12.5V18.75C12.5 18.4438 12.6124 18.1483 12.8159 17.9195C13.0193 17.6907 13.2997 17.5445 13.6037 17.5087L13.75 17.5H16.25Z" fill="white"/>
</svg>
