<svg width="24" height="24" viewBox="0 0 24 24" fill="none" xmlns="http://www.w3.org/2000/svg">
<path d="M17.715 15.9529C17.471 15.6966 17.2925 15.3853 17.1945 15.0453C17.0965 14.7053 17.0819 14.3467 17.152 13.9999H6.25203C5.65581 14.0004 5.08418 14.2376 4.66268 14.6592C4.24119 15.0809 4.00429 15.6527 4.00403 16.2489V17.1689C4.00403 17.7409 4.18203 18.2989 4.51403 18.7649C6.05603 20.9289 8.58003 21.9999 12 21.9999C12.39 21.9999 12.7677 21.9859 13.133 21.9579C13.0032 21.5976 12.9674 21.2101 13.0292 20.8321C13.091 20.4541 13.2482 20.0981 13.486 19.7979L14.286 18.7879C14.5469 18.4596 14.8962 18.2127 15.2927 18.0763C15.6892 17.9399 16.1164 17.9196 16.524 18.0179L17.362 18.2209C17.882 17.7839 18.192 17.2459 18.31 16.5769L17.715 15.9529ZM12 2.00488C12.6566 2.00488 13.3068 2.13421 13.9134 2.38548C14.5201 2.63676 15.0713 3.00506 15.5356 3.46935C15.9999 3.93364 16.3682 4.48484 16.6194 5.09147C16.8707 5.69809 17 6.34827 17 7.00488C17 7.66149 16.8707 8.31167 16.6194 8.9183C16.3682 9.52493 15.9999 10.0761 15.5356 10.5404C15.0713 11.0047 14.5201 11.373 13.9134 11.6243C13.3068 11.8756 12.6566 12.0049 12 12.0049C10.6739 12.0049 9.40218 11.4781 8.46449 10.5404C7.52681 9.60273 7.00003 8.33097 7.00003 7.00488C7.00003 5.6788 7.52681 4.40703 8.46449 3.46935C9.40218 2.53167 10.6739 2.00488 12 2.00488ZM18.192 13.9949L18.668 12.7899C18.91 12.1759 19.588 11.8569 20.216 12.0619L20.647 12.2029C21.371 12.4399 21.973 13.0089 21.997 13.7719C22.097 16.8819 19.521 21.3549 16.784 22.8269C16.111 23.1889 15.316 22.9499 14.749 22.4359L14.412 22.1309C14.1764 21.9176 14.0306 21.6227 14.0043 21.3059C13.9779 20.9892 14.0729 20.6742 14.27 20.4249L15.07 19.4149C15.36 19.0479 15.837 18.8849 16.29 18.9949L17.582 19.3079C18.6847 18.5779 19.276 17.5515 19.356 16.2289L18.439 15.2649C18.2808 15.0989 18.1735 14.8911 18.1297 14.666C18.0859 14.4409 18.1076 14.208 18.192 13.9949Z" fill="white"/>
</svg>
